<svg xmlns="http://www.w3.org/2000/svg" width="210" height="150" fill="none" viewBox="0 0 210 150"><path fill="#fff" d="m0 0h210v149.032h-210z"/><rect width="40.645" height="40.645" x="162.581" y="88.064" fill="#ecfbf3" rx="5.419"/><rect width="40.645" height="40.645" x="6.774" y="20.323" fill="#ecfbf3" rx="5.419"/><path stroke="#0fb860" stroke-width=".75" d="m55.6725 101.613h-24.668c-2.1582 0-3.9078-1.7497-3.9078-3.9079v-59.9263c0-2.1583 1.7496-3.9078 3.9078-3.9078h9.8266m29.4695 67.742h108.7084c2.158 0 3.894-1.7497 3.894-3.9079v-59.9264c0-2.1582-1.749-3.9077-3.908-3.9077h-9.675"/><path fill="#07a254" d="m127.692 70.657c-.433-.8995.223-1.9421 1.221-1.9421h9.141c.781 0 1.492.4476 1.831 1.1514l7.053 14.6657h-12.573z"/><path stroke="#262c2d" stroke-width=".75" d="m44.553 13.9234h120.894c1.951 0 3.533 1.5817 3.533 3.5328v64.6683c0 1.9513-1.581 3.5328-3.531 3.5328h-9.413-100.665-10.818c-1.9511 0-3.5327-1.5817-3.5327-3.5328v-64.6683c0-1.9511 1.5816-3.5328 3.5327-3.5328z"/><rect width="3.61" height="13.138" x="130.42" y="30.888" fill="#07a254" rx="1.805"/><rect width="3.61" height="18.887" x="139.695" y="25.14" fill="#07a254" rx="1.805"/><rect width="3.737" height="15.328" x="148.971" y="28.698" fill="#07a254" rx="1.869"/><rect width="3.737" height="22.171" x="158.374" y="21.855" fill="#07a254" rx="1.869"/><rect width="48.408" height="6.364" x="60.692" y="36.649" fill="#07a254" rx="3.182"/><circle cx="53.268" cy="40.808" r="3.182" fill="#07a254"/><rect width="48.408" height="6.364" x="60.692" y="25.846" fill="#07a254" rx="3.182"/><circle cx="53.268" cy="29.028" r="3.182" fill="#07a254"/><g stroke-width=".75"><path fill="#fff" stroke="#262c2d" d="m22.3928 52.6535h30.0176c.7029 0 1.2728.5699 1.2728 1.2728v22.262c0 .6717-.5445 1.2161-1.2161 1.2161-.6717 0-1.2161-.5444-1.2161-1.2161v-.1446c0-1.2824-1.0396-2.3219-2.3219-2.3219h-26.5363c-1.9511 0-3.5328-1.5817-3.5328-3.5328v-14.0027c0-1.9511 1.5817-3.5328 3.5328-3.5328z"/><path stroke="#262c2d" d="m23.4014 58.1864 1.2871-.576c.8188-.3663 1.755-.3663 2.5737.0001.8188.3664 1.755.3665 2.5738 0 .8188-.3664 1.7549-.3664 2.5737 0 .8188.3665 1.7549.3665 2.5737 0 .8188-.3664 1.755-.3664 2.5737 0 .8188.3665 1.755.3665 2.5738 0 .8187-.3664 1.7549-.3664 2.5737 0 .8188.3665 1.7549.3665 2.5737 0 .8188-.3664 1.755-.3664 2.5737 0l1.2869.5759"/><path stroke="#262c2d" d="m23.4014 61.7076 1.2871-.576c.8188-.3664 1.755-.3663 2.5737.0001.8188.3664 1.755.3664 2.5738 0 .8188-.3664 1.7549-.3664 2.5737 0 .8188.3664 1.7549.3664 2.5737 0 .8188-.3664 1.755-.3664 2.5737 0 .8188.3664 1.755.3664 2.5738 0 .8187-.3664 1.7549-.3664 2.5737 0 .8188.3664 1.7549.3664 2.5737 0 .8188-.3664 1.755-.3664 2.5737 0l1.2869.5759"/><path stroke="#18cc6c" d="m23.4014 65.2288 1.2871-.576c.8188-.3664 1.755-.3664 2.5737.0001.8188.3664 1.755.3664 2.5738 0 .8188-.3665 1.7549-.3665 2.5737 0 .8188.3664 1.7549.3664 2.5737 0 .8188-.3665 1.755-.3665 2.5737 0 .8188.3664 1.755.3664 2.5738 0 .8187-.3665 1.7549-.3665 2.5737 0 .8188.3664 1.7549.3664 2.5737 0 .8188-.3665 1.755-.3665 2.5737 0l1.2869.5759"/><path stroke="#262c2d" d="m23.4014 68.7503 1.2871-.576c.8188-.3664 1.755-.3664 2.5737.0001.8188.3664 1.755.3664 2.5738 0 .8188-.3665 1.7549-.3665 2.5737 0 .8188.3664 1.7549.3664 2.5737 0 .8188-.3665 1.755-.3665 2.5737 0 .8188.3664 1.755.3664 2.5738 0 .8187-.3665 1.7549-.3665 2.5737 0 .8188.3664 1.7549.3664 2.5737 0 .8188-.3665 1.755-.3665 2.5737 0l1.2869.5759"/><path fill="#fff" stroke="#262c2d" d="m186.68 43.2914h-30.017c-.703 0-1.273.5698-1.273 1.2728v22.262c0 .6717.544 1.2161 1.216 1.2161.671 0 1.216-.5445 1.216-1.2161v-.1446c0-1.2824 1.039-2.3219 2.322-2.3219h26.536c1.951 0 3.533-1.5817 3.533-3.5328v-14.0027c0-1.9511-1.582-3.5328-3.533-3.5328z"/><path stroke="#262c2d" d="m159.932 48.6072 1.287-.576c.819-.3664 1.755-.3663 2.574.0001.819.3664 1.755.3664 2.573 0 .819-.3664 1.755-.3664 2.574 0 .819.3664 1.755.3664 2.574 0 .819-.3664 1.755-.3664 2.574 0 .818.3664 1.755.3664 2.573 0 .819-.3664 1.755-.3664 2.574 0 .819.3664 1.755.3664 2.574 0 .819-.3664 1.755-.3664 2.574 0l1.286.5759"/><path stroke="#0fb860" d="m159.932 52.1283 1.287-.576c.819-.3664 1.755-.3664 2.574 0 .819.3665 1.755.3665 2.573.0001.819-.3665 1.755-.3665 2.574 0 .819.3664 1.755.3664 2.574 0 .819-.3665 1.755-.3665 2.574 0 .818.3664 1.755.3664 2.573 0 .819-.3665 1.755-.3665 2.574 0 .819.3664 1.755.3664 2.574 0 .819-.3665 1.755-.3665 2.574 0l1.286.5759"/><path stroke="#262c2d" d="m159.932 55.6495 1.287-.576c.819-.3664 1.755-.3663 2.574.0001.819.3664 1.755.3664 2.573 0 .819-.3664 1.755-.3664 2.574 0 .819.3664 1.755.3664 2.574 0 .819-.3664 1.755-.3664 2.574 0 .818.3664 1.755.3664 2.573 0 .819-.3664 1.755-.3664 2.574 0 .819.3664 1.755.3664 2.574 0 .819-.3664 1.755-.3664 2.574 0l1.286.5759"/><path stroke="#262c2d" d="m159.932 59.1709 1.287-.576c.819-.3663 1.755-.3663 2.574.0001.819.3664 1.755.3665 2.573 0 .819-.3664 1.755-.3664 2.574 0 .819.3665 1.755.3665 2.574 0 .819-.3664 1.755-.3664 2.574 0 .818.3665 1.755.3665 2.573 0 .819-.3664 1.755-.3664 2.574 0 .819.3665 1.755.3665 2.574 0 .819-.3664 1.755-.3664 2.574 0l1.286.5759"/><path stroke="#262c2d" d="m50.2114 126c-9.6669.862-16.3406 2.696-16.3406 4.819 0 2.95 12.8899 5.342 28.7904 5.342 15.9004 0 28.7903-2.392 28.7903-5.342 0-2.04-6.1564-3.812-15.2084-4.712"/><path stroke="#262c2d" d="m134.889 126c-9.667.862-16.341 2.696-16.341 4.819 0 2.95 12.89 5.342 28.791 5.342 15.9 0 28.79-2.392 28.79-5.342 0-2.04-6.156-3.812-15.208-4.712"/><path stroke="#262c2d" stroke-dasharray=".98 2.93" stroke-linecap="round" d="m94.1614 130.742h21.6776"/><path fill="#262c2d" stroke="#262c2d" d="m154.902 128.596v-32.1622h-13.926l-.665 16.0812.665 16.081h3.502l3.347-24.2 1.158 12.1 2.489 12.1z"/></g><path fill="#fff" d="m142.02 74.4296h3.112c5.395 0 9.769 4.374 9.769 9.7695v11.577c0 1.0791-.874 1.9539-1.954 1.9539h-10.262c-1.079 0-1.954-.8748-1.954-1.9539v-11.977c-.843 1.9787-2.167 4.1614-3.036 5.3294-.316.4245-.824.639-1.353.639h-.554c-.773 0-1.474-.4562-1.787-1.1635l-2.838-6.4171c-.185-.4175-.089-.9059.24-1.2227.481-.4637 1.263-.3875 1.646.1604l2.914 4.1721.475-2.9586c.732-5.417 4.273-7.5294 5.582-7.9085z"/><path stroke="#262c2d" stroke-linejoin="round" stroke-width=".75" d="m141.471 81.4917c-.114.6714-.384 1.4711-.74 2.3074m0 0c-.843 1.9787-2.167 4.1614-3.036 5.3294-.316.4245-.824.639-1.353.639h-.554c-.773 0-1.474-.4562-1.787-1.1635l-2.838-6.4171c-.185-.4175-.089-.9059.24-1.2227.481-.4637 1.263-.3875 1.646.1604l2.914 4.1721.475-2.9586c.732-5.417 4.273-7.5294 5.582-7.9085h3.112c5.395 0 9.769 4.374 9.769 9.7695v11.577c0 1.0791-.874 1.9539-1.954 1.9539h-10.262c-1.079 0-1.954-.8748-1.954-1.9539z"/><path fill="#fff" stroke="#262c2d" stroke-width=".75" d="m148.036 130.218 3.679-2.033c.1-.055.213-.084.328-.084h2.348c.36 0 .656.281.676.64l.113 2.032c.022.388-.287.715-.676.715h-6.14c-.7 0-.94-.932-.328-1.27z"/><path fill="#fff" stroke="#262c2d" stroke-width=".75" d="m137.8 130.218 3.679-2.033c.101-.055.213-.084.328-.084h2.348c.36 0 .657.281.677.64l.113 2.032c.021.388-.288.715-.677.715h-6.14c-.7 0-.94-.932-.328-1.27z"/><path stroke="#262c2d" stroke-width=".75" d="m145.71 72.2129c-2.326 0-4.211-2.3316-4.211-5.2078s1.885-5.2078 4.211-5.2078c2.325 0 4.21 2.3316 4.21 5.2078v8.032"/><path fill="#262c2d" fill-rule="evenodd" d="m148.784 60.6055c-.756-.5507-1.825-.8942-3.01-.8942-2.291 0-4.147 1.2822-4.147 2.8638 0 1.1301.948 2.1073 2.324 2.5731.27 1.0033 1.087 2.0317 2.282 2.7344-.211 1.9539-1.299 5.8564-4.042 6.3899-.514.4821-1.234 1.6393 0 2.4108 1.543.9643 7.425 1.5429 8.871.7714 1.157-.6171 2.154-.7714 2.507-.7714.708-3.7287.888-12.0539-4.05-15.5254-.165-.1551-.42-.3562-.735-.5524z" clip-rule="evenodd"/><path fill="#262c2d" d="m148.784 60.6055-.221.3031.011.0081.012.0073zm-4.833 4.5427.363-.0974-.053-.1935-.189-.0643zm2.282 2.7344.373.0404.026-.2408-.209-.1228zm-4.042 6.3899-.072-.3681-.106.0206-.079.0739zm0 2.4108.199-.318zm8.871.7714.177.3309zm2.507-.7714v.375h.311l.058-.3051zm-4.05-15.5254-.256.2736.019.018.022.0152zm-.514-.8554c-.829-.6036-1.978-.9662-3.231-.9662v.75c1.116 0 2.106.3244 2.789.8223zm-3.231-.9662c-1.212 0-2.325.3385-3.146.9052-.819.5657-1.376 1.3845-1.376 2.3336h.75c0-.6326.371-1.2456 1.053-1.7165.68-.4697 1.64-.7723 2.719-.7723zm-4.522 3.2388c0 1.3596 1.128 2.4371 2.579 2.9283l.241-.7104c-1.302-.4404-2.07-1.3173-2.07-2.2179zm2.337 2.6706c.301 1.1171 1.193 2.2185 2.454 2.9602l.38-.6465c-1.128-.6638-1.87-1.6191-2.109-2.5086zm-1.327 9.3949c1.542-.2998 2.574-1.536 3.235-2.8632.666-1.3358 1-2.8453 1.109-3.8544l-.746-.0808c-.102.9448-.418 2.3634-1.034 3.6007-.621 1.246-1.505 2.2277-2.707 2.4615zm.128 1.7247c-.259-.1613-.387-.3247-.449-.4664-.061-.1415-.071-.2932-.038-.4553.069-.3413.318-.6858.544-.8976l-.513-.5471c-.288.2704-.655.7456-.767 1.2963-.057.2839-.047.5963.087.9038.134.3073.379.5779.738.8023zm8.496.7585c-.282.1501-.845.2579-1.622.2969-.757.0381-1.658.009-2.567-.0742s-1.818-.2196-2.59-.3933c-.785-.1763-1.389-.3825-1.717-.5879l-.398.636c.443.2767 1.153.5045 1.95.6837.81.182 1.751.3228 2.686.4083.935.0856 1.873.1168 2.674.0765.781-.0393 1.495-.1486 1.937-.3842zm2.683-.8155c-.421 0-1.478.1727-2.683.8155l.353.6618c1.109-.5915 2.045-.7273 2.33-.7273zm-4.265-14.8436c2.349 1.6516 3.51 4.482 3.987 7.4195.475 2.9308.257 5.8997-.09 7.7292l.737.1398c.36-1.8992.585-4.9573.093-7.9891-.491-3.0251-1.708-6.0931-4.296-7.913zm-.718-.5407c.296.1844.531.3707.677.5075l.513-.5472c-.185-.1734-.46-.3892-.794-.5972z"/><path stroke="#262c2d" stroke-width=".75" d="m56.0923 95.079v33.501h3.4296l2.4269-12.604 1.0955-12.603"/><path stroke="#262c2d" stroke-width=".75" d="m70.0167 95.079 1.3314 15.831-1.3314 17.461h-3.2908l-3.6828-25.2"/><path fill="#262c2d" d="m55.7734 83.8663c0-5.3956 4.374-9.7695 9.7695-9.7695h4.7933v21.3465c0 1.0791-.8748 1.9539-1.9539 1.9539h-10.655c-1.0791 0-1.9539-.8748-1.9539-1.9539z"/><path fill="#262c2d" d="m72.9025 72.0805-2.5666 2.0107v6.6628l4.9765-3.8987c.4728-.3703.7489-.9375.7489-1.5381v-1.6986c0-1.6291-1.8764-2.5428-3.1588-1.5381z"/><path stroke="#262c2d" stroke-width=".75" d="m56.2258 125.323h3.9711"/><path stroke="#262c2d" stroke-width=".75" d="m66.3872 125.323h3.8783"/><path fill="#262c2d" stroke="#262c2d" stroke-width=".75" d="m62.9575 130.149-3.679-2.032c-.1003-.056-.213-.085-.3276-.085h-2.3483c-.3595 0-.6564.281-.6763.64l-.1131 2.032c-.0216.389.2875.715.6764.715h6.1404c.6998 0 .9401-.932.3275-1.27z"/><path fill="#262c2d" stroke="#262c2d" stroke-width=".75" d="m73.7063 130.149-3.679-2.032c-.1003-.056-.213-.085-.3276-.085h-2.3483c-.3595 0-.6564.281-.6764.64l-.113 2.032c-.0216.389.2875.715.6764.715h6.1403c.6999 0 .9402-.932.3276-1.27z"/><path stroke="#262c2d" stroke-width=".75" d="m65.2826 72.2129c2.3254 0 4.2104-2.3316 4.2104-5.2078s-1.885-5.2079-4.2104-5.2079c-2.3253 0-4.2103 2.3317-4.2103 5.2079v9.3868"/><path fill="#262c2d" d="m53.5069 81.3997c.3111-4.1193 3.7442-7.3029 7.8753-7.3029l-4.4757 14.6289-3.5184-.8056c-.2112-.0484-.3552-.2439-.3389-.4599z"/><path stroke="#262c2d" stroke-width=".75" d="m73.8389 72.4838 14.2029-11.3519c.2821-1.0658.884-3.3292 1.0344-3.8558.1881-.6583.6584.3762.6584 1.6928.3448.2508 1.0532 1.0345 1.1285 2.163.0752 1.1285-1.1599 1.0972-1.7869.9404l-13.8825 14.476"/><path stroke="#fff" stroke-width=".75" d="m55.4298 89.0378c-.1235-1.8652-.1797-4.4839.2647-6.2331"/><ellipse cx="62.156" cy="66.753" fill="#262c2d" rx="3.382" ry="5.403"/><ellipse cx="64.773" cy="63.259" fill="#262c2d" rx="3.382" ry="5.403" transform="matrix(.30831477 .9512844 -.9512844 .30831477 104.97955 -17.861848)"/><path stroke="#0fb860" stroke-width=".75" d="m52.8386 113.129c-10.8142.891-18.9678 2.454-18.9678 3.726 0 2.806 31.8456 5.08 71.1292 5.08 39.283 0 71.129-2.274 71.129-5.08 0-1.283-6.657-2.455-17.638-3.349m-83.8531-1.247c9.2082-.311 19.5008-.485 30.3621-.485 10.861 0 22.63.174 31.839.485"/></svg>